<svg xmlns="http://www.w3.org/2000/svg" viewBox="0 0 500 500"><defs><style>.cls-1,.cls-3{fill:#fff;}.cls-2{fill:#98d3bb;}.cls-10,.cls-11,.cls-12,.cls-13,.cls-14,.cls-15,.cls-16,.cls-17,.cls-18,.cls-2,.cls-20,.cls-21,.cls-24,.cls-25,.cls-26,.cls-27,.cls-28,.cls-29,.cls-3,.cls-30,.cls-31,.cls-32,.cls-33,.cls-34,.cls-35,.cls-36,.cls-38,.cls-5,.cls-6,.cls-8,.cls-9{fill-rule:evenodd;}.cls-4{fill:#b2323a;}.cls-5{fill:#c44345;}.cls-6{fill:#da4346;}.cls-35,.cls-7{fill:#9cc6e0;}.cls-8{fill:#78c9d9;}.cls-23,.cls-9{fill:#d84f50;}.cls-10,.cls-19{fill:#a36e4e;}.cls-11,.cls-22{fill:#0c0e0e;}.cls-12{fill:#fffaf9;}.cls-14{fill:#794c34;}.cls-15{fill:#fadfd3;}.cls-16{fill:#7cbee2;}.cls-17{fill:#aabd46;}.cls-18{fill:#ccde6f;}.cls-20{fill:#7897a8;}.cls-21{fill:#252626;}.cls-24{fill:#a62a34;}.cls-25{fill:#e2ecf7;}.cls-26{fill:#e8685b;}.cls-27{fill:#f4ad85;}.cls-28{fill:#f6bb98;}.cls-29{fill:#ef8871;}.cls-30{fill:#d64341;}.cls-31{fill:#f8caae;}.cls-32{fill:#222221;}.cls-33{fill:#373736;}.cls-34{fill:#dedede;}.cls-36{fill:#be865e;}.cls-37{fill:#915e40;}.cls-38{fill:#d49d80;}.cls-39{fill:#1c262d;}</style></defs><title>about</title><g id="BACKGROUND"><rect class="cls-1" width="500" height="500"/></g><g id="OBJECTS"><path class="cls-2" d="M102.12,421.2a70.18,70.18,0,0,1-70-70h0a70.19,70.19,0,0,1,70-70h0a29.67,29.67,0,0,0,29.59-29.59h0a29.68,29.68,0,0,0-29.59-29.59H98.6a30.85,30.85,0,0,1-30.76-30.76h0A30.85,30.85,0,0,1,98.6,160.52h10.8a12,12,0,0,0,12-12h0a12,12,0,0,0-12-12h-7.93a8.29,8.29,0,0,1-8.27-8.27h0a8.29,8.29,0,0,1,8.27-8.27h53.36a13,13,0,0,0,13-13h0a13,13,0,0,0-13-13h-16a8.29,8.29,0,0,1-8.26-8.27h0a8.29,8.29,0,0,1,8.26-8.27h233.7a10.83,10.83,0,0,1,10.79,10.79h0A10.83,10.83,0,0,1,372.57,99.1H356.21A17,17,0,0,0,339.26,116h0A17,17,0,0,0,356.21,133h63.3a10.83,10.83,0,0,1,10.79,10.79h0a10.83,10.83,0,0,1-10.79,10.79H409.15a15.67,15.67,0,0,0-15.63,15.62h0a15.67,15.67,0,0,0,15.63,15.63h14.1A40.26,40.26,0,0,1,463.39,226h0a40.25,40.25,0,0,1-40.14,40.14h-4.6A38.73,38.73,0,0,0,380,304.72h0a38.73,38.73,0,0,0,38.61,38.62h10a39,39,0,0,1,38.94,38.93h0A39,39,0,0,1,428.6,421.2ZM400.17,99.1a10.79,10.79,0,1,0-10.79-10.79A10.79,10.79,0,0,0,400.17,99.1ZM78.27,136.57A8.27,8.27,0,1,0,70,128.3,8.27,8.27,0,0,0,78.27,136.57Z"/><path class="cls-3" d="M262.32,110.42a2.44,2.44,0,1,0-2.43-2.44A2.44,2.44,0,0,0,262.32,110.42Z"/><rect class="cls-4" x="135.63" y="186.09" width="44.28" height="27.07" rx="1.97"/><path class="cls-5" d="M179.89,211.53a2,2,0,0,1-1.94,1.63H137.6a2,2,0,0,1-1.94-1.63l22.11-15.33Z"/><path class="cls-6" d="M137.6,186.09H178a2,2,0,0,1,1.45.64l-21.63,15-21.62-15A2,2,0,0,1,137.6,186.09Z"/><rect class="cls-7" x="345.31" y="245.02" width="17.3" height="17.3" rx="2.36"/><rect class="cls-7" x="345.31" y="266.81" width="17.3" height="17.3" rx="2.36"/><rect class="cls-7" x="345.31" y="288.6" width="17.3" height="17.3" rx="2.36"/><rect class="cls-7" x="345.31" y="310.38" width="17.3" height="17.3" rx="2.36"/><rect class="cls-1" x="343.35" y="243.35" width="17.3" height="17.3" rx="2.36"/><rect class="cls-1" x="343.35" y="265.14" width="17.3" height="17.3" rx="2.36"/><rect class="cls-1" x="343.35" y="286.93" width="17.3" height="17.3" rx="2.36"/><rect class="cls-1" x="343.35" y="308.72" width="17.3" height="17.3" rx="2.36"/><path class="cls-8" d="M347.1,253.92a1,1,0,0,1,1.49-1.43l1.86,1.93,4.86-7a1,1,0,1,1,1.69,1.17l-5.55,8.06a1,1,0,0,1-.16.19,1,1,0,0,1-1.45,0Z"/><path class="cls-9" d="M349.62,278.21a1,1,0,0,1-1.57-1.33l2.6-3.09-2.6-3.09a1,1,0,1,1,1.57-1.33l2.38,2.82,2.38-2.82A1,1,0,0,1,356,270.7l-2.61,3.09,2.61,3.09a1,1,0,0,1-1.58,1.33L352,275.39Z"/><path class="cls-8" d="M347.1,297.5a1,1,0,1,1,1.49-1.43l1.86,1.93,4.86-7.05a1,1,0,1,1,1.69,1.17l-5.55,8.06a1,1,0,0,1-.16.19,1,1,0,0,1-1.45,0Z"/><path class="cls-3" d="M373.22,346.12c.8,1,8.83,5.43,8.83,5.43l-3,42S379,398,373.94,398H357.55c-5.06,0-5.14-4.45-5.14-4.45l-3-42s8-4.44,8.84-5.43Z"/><path class="cls-10" d="M381.34,360.52H350.15a1,1,0,0,0-.79.34,1.06,1.06,0,0,0-.29.81l1.87,26.42a1.08,1.08,0,0,0,1.08,1h27.46a1.07,1.07,0,0,0,1.07-1l1.87-26.42a1.06,1.06,0,0,0-1.08-1.15Z"/><path class="cls-3" d="M377.06,343.27H354.43a5,5,0,0,0-5,5h0a5,5,0,0,0,5,5h22.63a5,5,0,0,0,5-5h0A5,5,0,0,0,377.06,343.27Z"/><path class="cls-10" d="M382.71,348.25H348.78a2.82,2.82,0,0,0-2.8,2.81h0a2.81,2.81,0,0,0,2.8,2.8h33.93a2.81,2.81,0,0,0,2.81-2.8h0A2.82,2.82,0,0,0,382.71,348.25Z"/><path class="cls-11" d="M365.75,385.31a10.5,10.5,0,1,0-10.5-10.5A10.52,10.52,0,0,0,365.75,385.31Z"/><path class="cls-12" d="M365.75,384.05a9.25,9.25,0,1,0-9.25-9.24A9.26,9.26,0,0,0,365.75,384.05Z"/><path class="cls-13" d="M365.75,367.38h0a4.48,4.48,0,0,0-4.47,4.47v5.92a4.48,4.48,0,0,0,3,4.21v-4.74c0-1.63.26-1.87.88-2.45a3.81,3.81,0,0,0,.3-.29l.46-.4c.59-.5,1.2-1,1.2-2.92v-3.59a4.29,4.29,0,0,0-1.35-.21Zm-.62,14.81v-4.95c0-1.26.17-1.42.6-1.82.11-.1.22-.21.33-.3a3.42,3.42,0,0,1,.4-.36c.74-.62,1.51-1.27,1.51-3.58V368a4.5,4.5,0,0,1,2.25,3.88v5.92a4.48,4.48,0,0,1-4.47,4.47h0A4.21,4.21,0,0,1,365.13,382.19Z"/><path class="cls-14" d="M348.12,349.16a2.82,2.82,0,0,0,2.81,2.81h33.93a3,3,0,0,0,.52-.05,2.81,2.81,0,0,1-2.67,1.94H348.78a2.8,2.8,0,0,1-.52-5.56A2.72,2.72,0,0,0,348.12,349.16Z"/><path class="cls-15" d="M351.75,344.06a5,5,0,0,0,4.58,3H379a5,5,0,0,0,2.69-.78,5,5,0,0,1,.41,2H349.44A5,5,0,0,1,351.75,344.06Z"/><path class="cls-15" d="M354.7,356.27a1.25,1.25,0,0,0-1.24,1.33l.21,2.92h-3.59l-.48-6.66h32.29l-.17,2.41ZM356,389.1l.34,4.79A1.15,1.15,0,0,0,357.5,395h21.29c-.46,1.31-1.67,3.08-4.86,3.08H357.54c-5.06,0-5.14-4.45-5.14-4.45l-.32-4.49Z"/><path class="cls-14" d="M353.53,361.67l1.87,26.42a1.08,1.08,0,0,0,1.08,1H352a1.08,1.08,0,0,1-1.08-1l-1.87-26.42a1.08,1.08,0,0,1,1-1.15h4.53a1,1,0,0,0-.79.34A1.06,1.06,0,0,0,353.53,361.67Z"/><path class="cls-16" d="M110.9,238.45h60.56a5.61,5.61,0,0,1,5.59,5.59v31a.62.62,0,0,1-.39.58.61.61,0,0,1-.68-.13L166.47,266H110.9a5.6,5.6,0,0,1-5.58-5.58V244A5.6,5.6,0,0,1,110.9,238.45Z"/><path class="cls-3" d="M118.25,256.33,111,253.12v-1l7.26-3.63v1.75l-5,2.32,5,2.06v1.75Zm2.66-2.07v-.54a2.38,2.38,0,0,1,.31-1.22,3.74,3.74,0,0,1,1.09-1.11,4.37,4.37,0,0,0,1-.89,1.25,1.25,0,0,0,.25-.77.85.85,0,0,0-.35-.72,1.73,1.73,0,0,0-1-.25,5.59,5.59,0,0,0-2.5.72l-.8-1.6a7,7,0,0,1,3.46-.92,3.73,3.73,0,0,1,2.4.73,2.36,2.36,0,0,1,.88,1.93,2.59,2.59,0,0,1-.36,1.39,5.23,5.23,0,0,1-1.39,1.31,4.26,4.26,0,0,0-.89.79,1.19,1.19,0,0,0-.19.71v.44Zm-.23,2.5a1.23,1.23,0,0,1,.33-.93,1.38,1.38,0,0,1,1-.31,1.32,1.32,0,0,1,.94.32,1.23,1.23,0,0,1,.33.92,1.19,1.19,0,0,1-.34.91,1.22,1.22,0,0,1-.93.34,1.29,1.29,0,0,1-1-.33,1.19,1.19,0,0,1-.34-.92Zm9-4.61h.75a2.47,2.47,0,0,0,1.57-.42,1.45,1.45,0,0,0,.52-1.2,1.5,1.5,0,0,0-.44-1.18,2,2,0,0,0-1.36-.38h-1v3.18Zm5.12-1.7a3.29,3.29,0,0,1-1.07,2.64,4.63,4.63,0,0,1-3.07.91h-1v3.81h-2.26v-10.7h3.41a4.58,4.58,0,0,1,3,.84,3,3,0,0,1,1,2.5Zm10.79,7.36H143.3V253.2h-4.24v4.61h-2.27v-10.7h2.27v4.2h4.24v-4.2h2.26v10.7Zm5-5.66h.75a2.47,2.47,0,0,0,1.57-.42,1.45,1.45,0,0,0,.52-1.2,1.5,1.5,0,0,0-.44-1.18,2,2,0,0,0-1.36-.38h-1v3.18Zm5.13-1.7a3.27,3.27,0,0,1-1.08,2.64,4.63,4.63,0,0,1-3.07.91h-1v3.81h-2.26v-10.7h3.41a4.58,4.58,0,0,1,3,.84,3,3,0,0,1,1,2.5Zm2.69,3.81v-.54a2.37,2.37,0,0,1,.3-1.22,3.87,3.87,0,0,1,1.09-1.11,4.48,4.48,0,0,0,1-.89,1.3,1.3,0,0,0,.24-.77.82.82,0,0,0-.35-.72,1.71,1.71,0,0,0-1-.25,5.62,5.62,0,0,0-2.5.72l-.8-1.6a7,7,0,0,1,3.46-.92,3.7,3.7,0,0,1,2.4.73,2.36,2.36,0,0,1,.88,1.93,2.51,2.51,0,0,1-.36,1.39,5.08,5.08,0,0,1-1.39,1.31,4.55,4.55,0,0,0-.89.79,1.27,1.27,0,0,0-.18.71v.44Zm-.24,2.5a1.23,1.23,0,0,1,.33-.93,1.38,1.38,0,0,1,1-.31,1.3,1.3,0,0,1,.94.32,1.43,1.43,0,0,1,0,1.83,1.25,1.25,0,0,1-.94.34,1.29,1.29,0,0,1-.95-.33,1.22,1.22,0,0,1-.34-.92Zm6-2.18,5-2.06-5-2.32v-1.75l7.27,3.63v1l-7.27,3.21Z"/><path class="cls-17" d="M127.8,376.88l2.91,3.64h13.23l2.91-3.64C157.3,348.69,117.35,348.69,127.8,376.88Z"/><path class="cls-18" d="M131.57,376.88l1.76,3.64h8l1.76-3.64C149.4,348.69,125.25,348.69,131.57,376.88Z"/><path class="cls-19" d="M126,374.54h22.69A1.43,1.43,0,0,1,150.1,376v6.48a1.43,1.43,0,0,1-1.43,1.43H126a1.43,1.43,0,0,1-1.43-1.43V376A1.42,1.42,0,0,1,126,374.54Z"/><polygon class="cls-10" points="144.89 379.81 129.76 379.81 125.81 383.87 129.03 398.04 137.32 398.04 145.61 398.04 148.84 383.87 144.89 379.81"/><polygon class="cls-14" points="125.81 383.87 126.47 386.67 148.18 386.67 148.84 383.87 125.81 383.87"/><path class="cls-9" d="M115.06,292.84h1.48a.65.65,0,0,1,.66.66h0a.66.66,0,0,1-.66.66h-1.48a.67.67,0,0,1-.67-.66h0A.66.66,0,0,1,115.06,292.84Z"/><path class="cls-9" d="M113.64,303.07h-8.37a.66.66,0,0,0-.66.66h0a.66.66,0,0,0,.66.67h8.37a.66.66,0,0,0,.66-.67h0A.66.66,0,0,0,113.64,303.07Z"/><path class="cls-9" d="M121,307.81h7a.67.67,0,0,1,.66.66h0a.67.67,0,0,1-.66.66h-7a.67.67,0,0,1-.67-.66h0A.67.67,0,0,1,121,307.81Z"/><path class="cls-9" d="M125.93,316.73h2a.66.66,0,0,1,.66.66h0a.67.67,0,0,1-.66.66h-2a.66.66,0,0,1-.66-.66h0A.65.65,0,0,1,125.93,316.73Z"/><path class="cls-9" d="M88.41,326.19h20.43a.67.67,0,0,1,.66.67h0a.67.67,0,0,1-.66.66H88.41a.67.67,0,0,1-.66-.66h0A.67.67,0,0,1,88.41,326.19Z"/><path class="cls-9" d="M113.64,330.93h-8.37a.66.66,0,0,0-.66.66h0a.65.65,0,0,0,.66.66h8.37a.65.65,0,0,0,.66-.66h0A.66.66,0,0,0,113.64,330.93Z"/><path class="cls-9" d="M121,335.67h7a.67.67,0,0,1,.66.66h0a.67.67,0,0,1-.66.66h-7a.67.67,0,0,1-.67-.66h0A.67.67,0,0,1,121,335.67Z"/><path class="cls-9" d="M125.93,344.58h2a.67.67,0,0,1,.66.67h0a.67.67,0,0,1-.66.66h-2a.66.66,0,0,1-.66-.66h0A.66.66,0,0,1,125.93,344.58Z"/><path class="cls-9" d="M88.41,354.05h20.43a.67.67,0,0,1,.66.67h0a.67.67,0,0,1-.66.66H88.41a.67.67,0,0,1-.66-.66h0A.67.67,0,0,1,88.41,354.05Z"/><path class="cls-20" d="M143.78,292.84h10.75a.66.66,0,0,1,.66.66h0a.67.67,0,0,1-.66.66H143.78a.67.67,0,0,1-.66-.66h0A.66.66,0,0,1,143.78,292.84Z"/><path class="cls-20" d="M103.46,297.29h21.06a.67.67,0,0,1,.66.67h0a.67.67,0,0,1-.66.66H103.46a.67.67,0,0,1-.67-.66h0A.67.67,0,0,1,103.46,297.29Z"/><path class="cls-20" d="M128.14,297.29h-.85a.66.66,0,0,0-.66.67h0a.66.66,0,0,0,.66.66h.85a.66.66,0,0,0,.66-.66h0A.66.66,0,0,0,128.14,297.29Z"/><path class="cls-20" d="M154.53,297.29H130.82a.67.67,0,0,0-.66.67h0a.67.67,0,0,0,.66.66h23.71a.67.67,0,0,0,.66-.66h0A.67.67,0,0,0,154.53,297.29Z"/><path class="cls-20" d="M120.31,292.84h20.08a.66.66,0,0,1,.66.66h0a.67.67,0,0,1-.66.66H120.31a.67.67,0,0,1-.66-.66h0A.66.66,0,0,1,120.31,292.84Z"/><path class="cls-20" d="M71.83,303.07H102a.66.66,0,0,1,.66.66h0a.66.66,0,0,1-.66.67H71.83a.67.67,0,0,1-.66-.67h0A.67.67,0,0,1,71.83,303.07Z"/><path class="cls-20" d="M116.5,303.07h30.22a.67.67,0,0,1,.66.66h0a.67.67,0,0,1-.66.67H116.5a.67.67,0,0,1-.66-.67h0A.67.67,0,0,1,116.5,303.07Z"/><path class="cls-20" d="M132,307.81h10.91a.66.66,0,0,1,.66.66h0a.66.66,0,0,1-.66.66H132a.67.67,0,0,1-.66-.66h0A.67.67,0,0,1,132,307.81Z"/><path class="cls-20" d="M69.66,307.81h47.7a.67.67,0,0,1,.66.66h0a.67.67,0,0,1-.66.66H69.66a.67.67,0,0,1-.67-.66h0A.67.67,0,0,1,69.66,307.81Z"/><path class="cls-20" d="M95.21,312.32h47.7a.66.66,0,0,1,.66.66h0a.65.65,0,0,1-.66.66H95.21a.66.66,0,0,1-.66-.66h0A.67.67,0,0,1,95.21,312.32Z"/><path class="cls-20" d="M132,316.73h10.91a.65.65,0,0,1,.66.66h0a.66.66,0,0,1-.66.66H132a.67.67,0,0,1-.66-.66h0A.66.66,0,0,1,132,316.73Z"/><path class="cls-20" d="M88.41,316.73h33.66a.66.66,0,0,1,.66.66h0a.67.67,0,0,1-.66.66H88.41a.67.67,0,0,1-.66-.66h0A.66.66,0,0,1,88.41,316.73Z"/><path class="cls-20" d="M95.21,321.46H148a.67.67,0,0,1,.67.66h0a.66.66,0,0,1-.67.66H95.21a.66.66,0,0,1-.66-.66h0A.67.67,0,0,1,95.21,321.46Z"/><path class="cls-20" d="M113.6,326.19H148a.67.67,0,0,1,.67.67h0a.67.67,0,0,1-.67.66H113.6a.67.67,0,0,1-.66-.66h0A.67.67,0,0,1,113.6,326.19Z"/><path class="cls-20" d="M71.83,330.93H102a.66.66,0,0,1,.66.66h0a.65.65,0,0,1-.66.66H71.83a.66.66,0,0,1-.66-.66h0A.67.67,0,0,1,71.83,330.93Z"/><path class="cls-20" d="M116.5,330.93h30.22a.67.67,0,0,1,.66.66h0a.66.66,0,0,1-.66.66H116.5a.66.66,0,0,1-.66-.66h0A.67.67,0,0,1,116.5,330.93Z"/><path class="cls-20" d="M132,335.67h10.91a.66.66,0,0,1,.66.66h0a.66.66,0,0,1-.66.66H132a.67.67,0,0,1-.66-.66h0A.67.67,0,0,1,132,335.67Z"/><path class="cls-20" d="M69.66,335.67h47.7a.67.67,0,0,1,.66.66h0a.67.67,0,0,1-.66.66H69.66a.67.67,0,0,1-.67-.66h0A.67.67,0,0,1,69.66,335.67Z"/><path class="cls-20" d="M95.21,340.18h47.7a.66.66,0,0,1,.66.66h0a.65.65,0,0,1-.66.66H95.21a.66.66,0,0,1-.66-.66h0A.67.67,0,0,1,95.21,340.18Z"/><path class="cls-20" d="M132,344.58h10.91a.66.66,0,0,1,.66.67h0a.66.66,0,0,1-.66.66H132a.67.67,0,0,1-.66-.66h0A.67.67,0,0,1,132,344.58Z"/><path class="cls-20" d="M88.41,344.58h33.66a.67.67,0,0,1,.66.67h0a.67.67,0,0,1-.66.66H88.41a.67.67,0,0,1-.66-.66h0A.67.67,0,0,1,88.41,344.58Z"/><path class="cls-20" d="M95.21,349.32H148a.67.67,0,0,1,.67.66h0a.66.66,0,0,1-.67.66H95.21a.66.66,0,0,1-.66-.66h0A.67.67,0,0,1,95.21,349.32Z"/><path class="cls-20" d="M113.6,354.05H148a.67.67,0,0,1,.67.67h0a.67.67,0,0,1-.67.66H113.6a.67.67,0,0,1-.66-.66h0A.67.67,0,0,1,113.6,354.05Z"/><path class="cls-16" d="M283.85,113.6h41.34a5.47,5.47,0,0,1,5.46,5.46v33.52a.61.61,0,0,1-1,.43l-9.3-9.3H283.85a5.48,5.48,0,0,1-5.46-5.46V119.06A5.47,5.47,0,0,1,283.85,113.6Z"/><path class="cls-3" d="M293.72,133.93h-2.27V129.3h-4.24v4.63h-2.28V123.2h2.28v4.21h4.24V123.2h2.27v10.73Zm6.85,0h-2.28V125.1h-2.91v-1.9h8.1v1.9h-2.91v8.83Zm9.1,0-2.58-8.42H307c.1,1.72.14,2.86.14,3.43v5h-2V123.2h3.1l2.53,8.21h.05l2.69-8.21h3.1v10.73h-2.12v-5.08c0-.24,0-.51,0-.83s0-1.14.1-2.49h-.07l-2.76,8.4Zm9.63,0V123.2h2.27v8.85h4.35v1.88Z"/><path class="cls-3" d="M109.51,194.94a2.44,2.44,0,1,0-2.43-2.44A2.44,2.44,0,0,0,109.51,194.94Z"/><path class="cls-3" d="M321.89,258.36a2.43,2.43,0,1,0-2.43-2.43A2.44,2.44,0,0,0,321.89,258.36Z"/><path class="cls-3" d="M378.2,157.16a2.43,2.43,0,1,0-2.43-2.43A2.43,2.43,0,0,0,378.2,157.16Z"/><path class="cls-3" d="M420.25,383.09a2.44,2.44,0,1,0-2.43-2.43A2.43,2.43,0,0,0,420.25,383.09Z"/><path class="cls-3" d="M88.13,383.8a2.43,2.43,0,1,0-2.44-2.43A2.43,2.43,0,0,0,88.13,383.8Z"/><path class="cls-3" d="M212.14,101.64a1.11,1.11,0,1,0-1.11-1.1A1.1,1.1,0,0,0,212.14,101.64Z"/><path class="cls-3" d="M136.59,167.21a1.11,1.11,0,1,0-1.11-1.11A1.11,1.11,0,0,0,136.59,167.21Z"/><path class="cls-7" d="M316.52,172.69h68a3.53,3.53,0,0,1,3.53,3.53v51.87a3.52,3.52,0,0,1-3.52,3.52h-68a3.52,3.52,0,0,1-3.52-3.52V176.22A3.53,3.53,0,0,1,316.52,172.69Z"/><path class="cls-1" d="M314.69,170.82h68a3.52,3.52,0,0,1,3.52,3.52v51.87a3.53,3.53,0,0,1-3.53,3.53h-68a3.53,3.53,0,0,1-3.53-3.53V174.34A3.52,3.52,0,0,1,314.69,170.82Z"/><path class="cls-21" d="M314.69,170.82h68a3.53,3.53,0,0,1,3.52,3.52v4.87a1,1,0,0,1-1,1H312.15a1,1,0,0,1-1-1v-4.87A3.53,3.53,0,0,1,314.69,170.82Z"/><path class="cls-11" d="M316.87,184.13h19.06a.73.73,0,0,1,.73.73h0a.73.73,0,0,1-.73.73H316.87a.73.73,0,0,1-.73-.73h0A.73.73,0,0,1,316.87,184.13Z"/><path class="cls-11" d="M335.93,187.36h-8.52a.73.73,0,0,0-.73.73h0a.73.73,0,0,0,.73.73h8.52a.73.73,0,0,0,.73-.73h0A.73.73,0,0,0,335.93,187.36Z"/><path class="cls-11" d="M323.7,187.36h.68a.73.73,0,0,1,.73.73h0a.73.73,0,0,1-.73.73h-.68a.73.73,0,0,1-.73-.73h0A.73.73,0,0,1,323.7,187.36Z"/><path class="cls-11" d="M316.87,187.36h4.26a.74.74,0,0,1,.74.73h0a.74.74,0,0,1-.74.73h-4.26a.73.73,0,0,1-.73-.73h0A.73.73,0,0,1,316.87,187.36Z"/><rect class="cls-22" x="316.14" y="191.19" width="20.52" height="1.47" rx="0.73"/><path class="cls-11" d="M316.87,194.42h8.51a.74.74,0,0,1,.74.74h0a.74.74,0,0,1-.74.73h-8.51a.73.73,0,0,1-.73-.73h0A.74.74,0,0,1,316.87,194.42Z"/><path class="cls-11" d="M329.1,194.42h-.68a.74.74,0,0,0-.73.74h0a.73.73,0,0,0,.73.73h.68a.73.73,0,0,0,.73-.73h0A.74.74,0,0,0,329.1,194.42Z"/><path class="cls-11" d="M335.93,194.42h-4.27a.74.74,0,0,0-.73.74h0a.73.73,0,0,0,.73.73h4.27a.73.73,0,0,0,.73-.73h0A.74.74,0,0,0,335.93,194.42Z"/><rect class="cls-22" x="316.14" y="198.25" width="20.52" height="1.46" rx="0.73"/><path class="cls-11" d="M335.93,201.49h-8.52a.73.73,0,0,0-.73.73h0a.73.73,0,0,0,.73.73h8.52a.73.73,0,0,0,.73-.73h0A.73.73,0,0,0,335.93,201.49Z"/><path class="cls-11" d="M323.7,201.49h.68a.73.73,0,0,1,.73.73h0a.73.73,0,0,1-.73.73h-.68a.73.73,0,0,1-.73-.73h0A.73.73,0,0,1,323.7,201.49Z"/><path class="cls-11" d="M316.87,201.49h4.26a.74.74,0,0,1,.74.73h0a.74.74,0,0,1-.74.73h-4.26a.73.73,0,0,1-.73-.73h0A.73.73,0,0,1,316.87,201.49Z"/><path class="cls-11" d="M316.87,205.32h19.06a.73.73,0,0,1,.73.73h0a.73.73,0,0,1-.73.73H316.87a.73.73,0,0,1-.73-.73h0A.73.73,0,0,1,316.87,205.32Z"/><path class="cls-11" d="M316.87,208.55h8.51a.74.74,0,0,1,.74.73h0a.73.73,0,0,1-.74.73h-8.51a.73.73,0,0,1-.73-.73h0A.73.73,0,0,1,316.87,208.55Z"/><path class="cls-11" d="M335.25,208.55h.68a.73.73,0,0,1,.73.73h0a.73.73,0,0,1-.73.73h-.68a.73.73,0,0,1-.73-.73h0A.73.73,0,0,1,335.25,208.55Z"/><path class="cls-11" d="M328.42,208.55h4.27a.73.73,0,0,1,.73.73h0a.73.73,0,0,1-.73.73h-4.27a.73.73,0,0,1-.73-.73h0A.73.73,0,0,1,328.42,208.55Z"/><rect class="cls-22" x="316.14" y="212.38" width="20.52" height="1.46" rx="0.73"/><rect class="cls-22" x="319.85" y="215.61" width="9.98" height="1.46" rx="0.73"/><rect class="cls-22" x="316.14" y="215.61" width="2.14" height="1.46" rx="0.73"/><rect class="cls-22" x="330.93" y="215.61" width="5.73" height="1.46" rx="0.73"/><rect class="cls-22" x="316.14" y="219.45" width="20.52" height="1.46" rx="0.73"/><path class="cls-11" d="M316.87,222.68h8.51a.74.74,0,0,1,.74.73h0a.74.74,0,0,1-.74.73h-8.51a.73.73,0,0,1-.73-.73h0A.73.73,0,0,1,316.87,222.68Z"/><path class="cls-11" d="M329.1,222.68h-.68a.73.73,0,0,0-.73.73h0a.73.73,0,0,0,.73.73h.68a.73.73,0,0,0,.73-.73h0A.73.73,0,0,0,329.1,222.68Z"/><path class="cls-11" d="M335.93,222.68h-4.27a.73.73,0,0,0-.73.73h0a.73.73,0,0,0,.73.73h4.27a.73.73,0,0,0,.73-.73h0A.73.73,0,0,0,335.93,222.68Z"/><path class="cls-9" d="M348.12,184.13h32.25a.73.73,0,0,1,.73.73h0a.73.73,0,0,1-.73.73H348.12a.73.73,0,0,1-.73-.73h0A.73.73,0,0,1,348.12,184.13Z"/><path class="cls-9" d="M380.37,187.36H365.44a.73.73,0,0,0-.73.73h0a.73.73,0,0,0,.73.73h14.93a.73.73,0,0,0,.73-.73h0A.73.73,0,0,0,380.37,187.36Z"/><path class="cls-9" d="M359.34,187.36h2.05a.73.73,0,0,1,.73.73h0a.73.73,0,0,1-.73.73h-2.05a.73.73,0,0,1-.73-.73h0A.73.73,0,0,1,359.34,187.36Z"/><path class="cls-9" d="M348.12,187.36h7.95a.73.73,0,0,1,.73.73h0a.73.73,0,0,1-.73.73h-7.95a.73.73,0,0,1-.73-.73h0A.73.73,0,0,1,348.12,187.36Z"/><rect class="cls-23" x="347.39" y="191.19" width="33.71" height="1.47" rx="0.73"/><path class="cls-9" d="M348.12,194.42h14.93a.74.74,0,0,1,.73.74h0a.73.73,0,0,1-.73.73H348.12a.73.73,0,0,1-.73-.73h0A.74.74,0,0,1,348.12,194.42Z"/><path class="cls-9" d="M369.15,194.42h-2.06a.74.74,0,0,0-.73.74h0a.73.73,0,0,0,.73.73h2.06a.73.73,0,0,0,.73-.73h0A.74.74,0,0,0,369.15,194.42Z"/><path class="cls-9" d="M380.37,194.42h-7.95a.74.74,0,0,0-.73.74h0a.73.73,0,0,0,.73.73h7.95a.73.73,0,0,0,.73-.73h0A.74.74,0,0,0,380.37,194.42Z"/><rect class="cls-23" x="347.39" y="198.25" width="33.71" height="1.46" rx="0.73"/><path class="cls-9" d="M380.37,201.49H365.44a.73.73,0,0,0-.73.73h0a.73.73,0,0,0,.73.73h14.93a.73.73,0,0,0,.73-.73h0A.73.73,0,0,0,380.37,201.49Z"/><path class="cls-9" d="M359.34,201.49h2.05a.73.73,0,0,1,.73.73h0a.73.73,0,0,1-.73.73h-2.05a.73.73,0,0,1-.73-.73h0A.73.73,0,0,1,359.34,201.49Z"/><path class="cls-9" d="M348.12,201.49h7.95a.73.73,0,0,1,.73.73h0a.73.73,0,0,1-.73.73h-7.95a.73.73,0,0,1-.73-.73h0A.73.73,0,0,1,348.12,201.49Z"/><path class="cls-9" d="M348.12,205.32h32.25a.73.73,0,0,1,.73.73h0a.73.73,0,0,1-.73.73H348.12a.73.73,0,0,1-.73-.73h0A.73.73,0,0,1,348.12,205.32Z"/><path class="cls-9" d="M348.12,208.55h14.93a.73.73,0,0,1,.73.73h0a.73.73,0,0,1-.73.73H348.12a.73.73,0,0,1-.73-.73h0A.73.73,0,0,1,348.12,208.55Z"/><path class="cls-9" d="M378.31,208.55h2.06a.73.73,0,0,1,.73.73h0a.73.73,0,0,1-.73.73h-2.06a.73.73,0,0,1-.73-.73h0A.73.73,0,0,1,378.31,208.55Z"/><path class="cls-9" d="M367.09,208.55h8a.73.73,0,0,1,.73.73h0a.73.73,0,0,1-.73.73h-8a.73.73,0,0,1-.73-.73h0A.73.73,0,0,1,367.09,208.55Z"/><rect class="cls-23" x="347.39" y="212.38" width="33.71" height="1.46" rx="0.73"/><rect class="cls-23" x="353.49" y="215.61" width="16.39" height="1.46" rx="0.73"/><rect class="cls-23" x="347.39" y="215.61" width="3.52" height="1.46" rx="0.73"/><rect class="cls-23" x="371.69" y="215.61" width="9.41" height="1.46" rx="0.73"/><rect class="cls-23" x="347.39" y="219.45" width="33.71" height="1.46" rx="0.73"/><path class="cls-9" d="M348.12,222.68h14.93a.73.73,0,0,1,.73.73h0a.73.73,0,0,1-.73.73H348.12a.73.73,0,0,1-.73-.73h0A.73.73,0,0,1,348.12,222.68Z"/><path class="cls-9" d="M369.15,222.68h-2.06a.73.73,0,0,0-.73.73h0a.73.73,0,0,0,.73.73h2.06a.73.73,0,0,0,.73-.73h0A.73.73,0,0,0,369.15,222.68Z"/><path class="cls-9" d="M380.37,222.68h-7.95a.73.73,0,0,0-.73.73h0a.73.73,0,0,0,.73.73h7.95a.73.73,0,0,0,.73-.73h0A.73.73,0,0,0,380.37,222.68Z"/><path class="cls-3" d="M368.11,177.2a1.7,1.7,0,1,0-1.69-1.69A1.69,1.69,0,0,0,368.11,177.2Z"/><path class="cls-3" d="M374.21,177.2a1.7,1.7,0,1,0-1.69-1.69A1.7,1.7,0,0,0,374.21,177.2Z"/><path class="cls-3" d="M380.31,177.2a1.7,1.7,0,1,0-1.69-1.69A1.7,1.7,0,0,0,380.31,177.2Z"/><path class="cls-3" d="M308.35,162.22a1.11,1.11,0,1,0-1.1-1.11A1.11,1.11,0,0,0,308.35,162.22Z"/><path class="cls-3" d="M181.81,222.41a1.11,1.11,0,1,0,0-2.21,1.11,1.11,0,0,0,0,2.21Z"/><path class="cls-3" d="M324.43,273.72a1.11,1.11,0,1,0-1.11-1.1A1.1,1.1,0,0,0,324.43,273.72Z"/><path class="cls-3" d="M402.11,352.83a1.11,1.11,0,1,0-1.11-1.1A1.11,1.11,0,0,0,402.11,352.83Z"/><path class="cls-3" d="M109.19,368.51a1.11,1.11,0,0,0,0-2.21,1.11,1.11,0,1,0,0,2.21Z"/><path class="cls-6" d="M201.36,269.59s-5,2.34-10.5,8.8c-4,4.61-20.33,48.2-30.2,75.68-2.45,6.8-12,30.51,7,44l4.1,3.67c6.3-13.08,22.06-47.86,22.06-47.86Z"/><path class="cls-24" d="M201.36,269.59s-5,2.34-10.5,8.8a27.76,27.76,0,0,0-2.77,5c1.35,6.81,1.14,16.13-2.49,28.77-11,38.33-5.95,59.11-.95,61.29l.22.1c4.86-10.61,9-19.67,9-19.67l7.53-84.26ZM156.7,367.91c-.28,11.2,9,20.83,19.87,23.61-1.85,4-3.52,7.53-4.8,10.19l-4.1-3.67C156,389.76,155.09,377.62,156.7,367.91Z"/><path class="cls-11" d="M294.9,199.81s1.3,23.22,9.66,38.12c0,0,2.7,3.56-.09,6.85s-20.61,17.84-51.62,22.09-61.28-21-62.07-24.29,9.5-27,8.69-47.06Z"/><path class="cls-13" d="M294.9,199.81a126.17,126.17,0,0,0,4.45,25.32c-5.29,4.36-16.36,15.64-15,32.73a111.92,111.92,0,0,1-31.52,9c-14.17,1.94-28.18-2.28-39.3-7.74a21.94,21.94,0,0,0-.22-16.62c-4.74-11.77-12.05-16.95-17.66-19.23,2.18-8.44,4.17-18.48,3.8-27.76Z"/><path class="cls-6" d="M299.13,269.59s5,2.34,10.5,8.8c3.94,4.61,20.32,48.2,30.2,75.68,2.44,6.8,12,30.51-7,44l-4.1,3.67c-6.31-13.08-22.07-47.86-22.07-47.86Z"/><path class="cls-24" d="M299.13,269.59s5,2.34,10.5,8.8a31,31,0,0,1,3,5.51c-1.23,6.77-.94,15.92,2.6,28.23,11,38.33,5.95,59.11.95,61.29l-.53.22c-4.88-10.66-9-19.79-9-19.79l-7.52-84.26ZM344.08,370c-.83,10.4-9.78,19.1-20.13,21.6,1.84,3.95,3.5,7.47,4.77,10.11l4.1-3.67C343.69,390.35,345.22,379.31,344.08,370Z"/><path class="cls-6" d="M250.16,256.66s46.94,11.11,49.1,13.13,11.95,50.37,12,55.1c0,4.36-11.28,64.27-13.12,80.63h-95.9c-1.85-16.36-13.15-76.27-13.12-80.63,0-4.73,9.8-53.08,12-55.1S250.16,256.66,250.16,256.66Z"/><path class="cls-24" d="M250.16,256.66s46.94,11.11,49.1,13.13,11.95,50.37,12,55.1c0,4-9.5,54.81-12.49,75.77-34.08,2-53.59,17.49-35.65,12.33s16-39.42,16-47.07-18.27-23.75-7.84-31.19,23.52-46.61,20-51.07-36.35-19.77-36.35-19.77-10.42,3.44-10.22-5.92Z"/><path class="cls-3" d="M250.16,256.66s13.1,3,26,6.14a26.46,26.46,0,0,1-25.61,21.57h-.32A26.42,26.42,0,0,1,224,262.81C237,259.65,250.16,256.66,250.16,256.66Z"/><path class="cls-25" d="M250.16,256.66s13.1,3,26,6.14a26.32,26.32,0,0,1-3.87,9.61c-8.86-4.51-17.44-8.52-17.44-8.52s-10.42,3.44-10.22-5.92a.43.43,0,0,0,0-.05Z"/><path class="cls-26" d="M249.54,221.5h.32a16.84,16.84,0,0,1,17,16.59l.23,19.72a16.84,16.84,0,0,1-16.59,17h-.32a16.83,16.83,0,0,1-17-16.59L233,238.48A16.84,16.84,0,0,1,249.54,221.5Z"/><path class="cls-26" d="M213,207a6.35,6.35,0,0,0-.76.13h0a10.35,10.35,0,1,0,8.64,2.08c.26,3-.22,6.84-4.12,7.22l.11-6A3.56,3.56,0,0,0,213,207Z"/><path class="cls-26" d="M287.66,207a6.35,6.35,0,0,1,.76.13h0a10.35,10.35,0,1,1-8.64,2.08c-.26,3,.22,6.84,4.12,7.22l-.11-6A3.55,3.55,0,0,1,287.66,207Z"/><path class="cls-27" d="M250.32,155.33h0a35.54,35.54,0,0,0-35.44,35.43V223a35.55,35.55,0,0,0,35.44,35.44h0A35.54,35.54,0,0,0,285.75,223V190.76A35.54,35.54,0,0,0,250.32,155.33Z"/><path class="cls-28" d="M243.83,216.78a11.08,11.08,0,0,0-3.27-5.39l-14.81,16.55a11.11,11.11,0,0,0,5.72,2.66l12.36-13.82Zm-4.6-6.43-14.66,16.38a10.93,10.93,0,0,1-1.65-2.67L236.39,209A11.58,11.58,0,0,1,239.23,210.35Z"/><path class="cls-28" d="M273.77,209.63l-14.24,15.92a11,11,0,0,1-1.34-3l12.42-13.88a10.89,10.89,0,0,1,3.16,1Zm5.34,5.6a11.09,11.09,0,0,0-3.86-4.73l-14.7,16.43a11.1,11.1,0,0,0,5.14,3.31Z"/><path class="cls-29" d="M259.08,257.32A35.57,35.57,0,0,0,285.75,223V190.76a35.39,35.39,0,0,0-12.48-26.93c-23.27,2.45-47.64,4.56-47.64,4.56s-13.36,25-6,30.21l1.23-1.39h45.66c6.88,0,12.22,1.6,12.22,10v24.4C278.75,237,271.47,253.14,259.08,257.32Z"/><path class="cls-26" d="M270.4,224.75a4.66,4.66,0,1,0,4.57,4.74A4.64,4.64,0,0,0,270.4,224.75Z"/><path class="cls-26" d="M230.32,224a4.66,4.66,0,1,0,4.58,4.75A4.66,4.66,0,0,0,230.32,224Z"/><path class="cls-13" d="M228.32,205.64a9.32,9.32,0,0,1,8.74,0,1.16,1.16,0,0,0,1.59-.39,1.18,1.18,0,0,0-.4-1.59,11.68,11.68,0,0,0-11,0,1.16,1.16,0,0,0-.52,1.55A1.15,1.15,0,0,0,228.32,205.64Z"/><path class="cls-13" d="M229.35,219a3.39,3.39,0,0,1,6.77,0,1.16,1.16,0,1,0,2.31,0,5.7,5.7,0,0,0-11.4,0,1.16,1.16,0,1,0,2.32,0Z"/><path class="cls-13" d="M272.62,219a1.16,1.16,0,1,0,2.31,0,5.7,5.7,0,1,0-11.39,0,1.16,1.16,0,1,0,2.31,0,3.38,3.38,0,0,1,3.39-3.38,3.38,3.38,0,0,1,3.38,3.38Z"/><path class="cls-13" d="M273.65,205.64a1.15,1.15,0,0,0,1.55-.51,1.17,1.17,0,0,0-.52-1.55,11.71,11.71,0,0,0-11,0,1.18,1.18,0,0,0-.4,1.59,1.15,1.15,0,0,0,1.58.39A9.34,9.34,0,0,1,273.65,205.64Z"/><path class="cls-9" d="M184.23,377.14l-1.81,1.73,25.88,13.8-5.79,9.06H173s-6.74-3-6.2-6.1S173.76,375.21,184.23,377.14Z"/><path class="cls-24" d="M198.39,387.38l9.91,5.29-5.79,9.06H173s-6.74-3-6.2-6.1a32,32,0,0,1,2.63-7,26,26,0,0,0,18.33,3.22C192.92,390.71,196.24,389.07,198.39,387.38Z"/><path class="cls-29" d="M219.21,392s-5-3.33-7.66-4.93a7,7,0,0,0-7.19.07,114.8,114.8,0,0,0-10.26,8.2c-1.15,1.22,5.51,3.9,6.2,3.9S219.21,392,219.21,392Z"/><path class="cls-9" d="M316.25,377.14l1.82,1.73-25.88,13.8,5.78,9.06h29.51s6.74-3,6.2-6.1S326.73,375.21,316.25,377.14Z"/><path class="cls-24" d="M302.32,387.27l-10.13,5.4,5.78,9.06h29.51s6.74-3,6.2-6.1a31.48,31.48,0,0,0-2.56-6.87,25.89,25.89,0,0,1-18.05,3.06C307.81,390.68,304.45,389,302.32,387.27Z"/><path class="cls-29" d="M281.28,392s5-3.33,7.66-4.93a7,7,0,0,1,7.19.07,116.24,116.24,0,0,1,10.26,8.2c1.15,1.22-5.51,3.9-6.2,3.9S281.28,392,281.28,392Z"/><path class="cls-11" d="M183.79,403.56H316.52a4.51,4.51,0,0,0,4.5-4.5h0a4.5,4.5,0,0,0-4.5-4.49H183.79a4.5,4.5,0,0,0-4.49,4.49h0A4.51,4.51,0,0,0,183.79,403.56Z"/><path class="cls-11" d="M282,207.52v4.57c0,2.2,2,4.65,3.73,4.65v-5s.71-3.68,5.26-3.68c13.94-16,12.11-41.49-2.78-54.68s-46.87-14-52.45-12.18-11.33,11.33-11.33,11.33-4.74-4.23-9.14-2-19.12,29.94-19.12,36.88,13.43,20.68,13.43,20.68c4.54,0,5.26,3.68,5.26,3.68v5c1.68,0,3.73-2.45,3.73-4.65v-4.57s4-6.27,4-12.87H232a2.43,2.43,0,0,0,2-2c.2-1,.81-7.36,1-8.89s.71-2.28,1-1.87.51,5.68,1,9.08,2.77,3.62,2.84,3.63h39.74S280,202.69,282,207.52Z"/><path class="cls-21" d="M298.15,168.33a36.14,36.14,0,0,0-8.56-13.66c-9.68,11.35-33.51,30.91-61.61-7-.56.69-1.08,1.35-1.52,2,3.43,7.86,10.3,19.43,22.86,26.64C267.05,186.4,289.71,182,298.15,168.33Z"/><path class="cls-13" d="M282,207.52v4.57c0,2.2,2,4.65,3.73,4.65v-5s.71-3.68,5.26-3.68c8.66-9.95,11.23-23.54,8.37-35.57-1.1,5.87-5.56,17.27-23.51,17.27-24.15,0-38.44-12.69-39.91-14a1.55,1.55,0,0,0-2.49.31s-8.24,12.54-22.45,8.73c-6-1.6-8.54-6.89-9.5-12.46-3,6.36-5.33,12.33-5.33,15.07,0,6.94,13.43,20.68,13.43,20.68,4.54,0,5.26,3.68,5.26,3.68v5c1.68,0,3.73-2.45,3.73-4.65v-4.57s4-6.27,4-12.87H232a2.43,2.43,0,0,0,2-2c.2-1,.81-7.36,1-8.89s.71-2.28,1-1.87.51,5.68,1,9.08,2.77,3.62,2.84,3.63h39.74S280,202.69,282,207.52Z"/><path class="cls-13" d="M260.74,233.59a10.07,10.07,0,1,1-20.13-.37h0a1.74,1.74,0,0,1,1.77-1.71l16.62.31a1.75,1.75,0,0,1,1.7,1.77Z"/><path class="cls-30" d="M256.85,241.36a10,10,0,0,1-6.36,2.11,9.85,9.85,0,0,1-5.29-1.62,6.26,6.26,0,0,1,5.82-3.6A6.37,6.37,0,0,1,256.85,241.36Z"/><path class="cls-3" d="M243,231.52l15.62.29c.22,1.73-.62,3.47-1.79,3.82-1.42.44-12.72-.07-13.5-1C242.91,234.22,242.88,232.84,243,231.52Z"/><path class="cls-31" d="M247.56,224.71s-1.39,2.53-.95,3.87,2.33.63,2.53-.55a9.65,9.65,0,0,0-.52-3.68C248.48,224.1,247.89,224,247.56,224.71Z"/><rect x="241.82" y="368.34" width="18.25" height="28.26"/><path class="cls-11" d="M210.33,403.85H290a5.82,5.82,0,0,0,5.8-5.81h0a5.82,5.82,0,0,0-5.8-5.8H210.33a5.82,5.82,0,0,0-5.81,5.8h0A5.82,5.82,0,0,0,210.33,403.85Z"/><path class="cls-32" d="M174.8,291.72h88.27V383.5H186.39a6.9,6.9,0,0,1-6.64-5.9l-10.11-80A5.11,5.11,0,0,1,174.8,291.72Z"/><path class="cls-33" d="M174.8,291.72h88.27V383.5H186.39a6.9,6.9,0,0,1-6.64-5.9l-10.11-80A5.11,5.11,0,0,1,174.8,291.72Z"/><path class="cls-32" d="M181.16,347.44h81.91V352H181.73a2.67,2.67,0,0,1-2.57-2.28h0A2,2,0,0,1,181.16,347.44Z"/><path class="cls-32" d="M183.32,354.4h79.75v25.82H186.58a4.19,4.19,0,0,1-4-3.57L180.2,358A3.09,3.09,0,0,1,183.32,354.4Z"/><path class="cls-11" d="M187.84,310.32h19.47a2.56,2.56,0,0,1,2.46,2.18l3.56,28.22a1.88,1.88,0,0,1-1.91,2.18H192a2.56,2.56,0,0,1-2.46-2.18l-3.56-28.22A1.89,1.89,0,0,1,187.84,310.32Z"/><path class="cls-32" d="M185.26,310.32h19.46a2.57,2.57,0,0,1,2.47,2.18l3.56,28.22a1.89,1.89,0,0,1-1.91,2.18H189.37a2.56,2.56,0,0,1-2.46-2.18l-3.56-28.22A1.88,1.88,0,0,1,185.26,310.32Z"/><path class="cls-11" d="M188.87,326.61h0a1.37,1.37,0,0,1,1.32,1.17l1.23,9.78a1,1,0,0,1-1,1.17h0a1.36,1.36,0,0,1-1.31-1.17l-1.23-9.78A1,1,0,0,1,188.87,326.61Z"/><path class="cls-11" d="M194.37,326.61h0a1.36,1.36,0,0,1,1.31,1.17l1.24,9.78a1,1,0,0,1-1,1.17h0a1.36,1.36,0,0,1-1.31-1.17l-1.23-9.78A1,1,0,0,1,194.37,326.61Z"/><path class="cls-11" d="M199.87,326.61h0a1.36,1.36,0,0,1,1.31,1.17l1.24,9.78a1,1,0,0,1-1,1.17h0a1.36,1.36,0,0,1-1.31-1.17l-1.24-9.78A1,1,0,0,1,199.87,326.61Z"/><path class="cls-11" d="M205.37,326.61h0a1.36,1.36,0,0,1,1.31,1.17l1.24,9.78a1,1,0,0,1-1,1.17h0a1.36,1.36,0,0,1-1.31-1.17l-1.24-9.78A1,1,0,0,1,205.37,326.61Z"/><path class="cls-32" d="M175,298.77h88.06v4.57H175.59a2.69,2.69,0,0,1-2.58-2.29h0A2,2,0,0,1,175,298.77Z"/><path class="cls-11" d="M184.23,356.48h78.84v1.79H184.46a1,1,0,0,1-1-.89h0a.78.78,0,0,1,.78-.9Zm2.42,19.12h76.42v1.79h-76.2a1.06,1.06,0,0,1-1-.89h0a.78.78,0,0,1,.79-.9Zm-.49-3.82h76.91v1.79H186.39a1,1,0,0,1-1-.9h0a.77.77,0,0,1,.78-.89Zm-.48-3.83h77.39v1.79H185.9a1,1,0,0,1-1-.89h0a.78.78,0,0,1,.78-.9Zm-.48-3.82h77.87v1.79H185.42a1.06,1.06,0,0,1-1-.89h0a.78.78,0,0,1,.79-.9Zm-.49-3.82h78.36v1.78H184.94a1.06,1.06,0,0,1-1-.89h0A.77.77,0,0,1,184.71,360.31Z"/><path class="cls-32" d="M218,308.2h45.1v34H222.26a2.21,2.21,0,0,1-2.13-1.88l-3.81-30.2A1.63,1.63,0,0,1,218,308.2Z"/><path class="cls-3" d="M221.2,312.58h27a1.16,1.16,0,0,1,1.12,1h0a.86.86,0,0,1-.87,1h-27a1.17,1.17,0,0,1-1.12-1h0A.85.85,0,0,1,221.2,312.58Z"/><path class="cls-11" d="M221.83,317.54h41.24v2h-41a1.17,1.17,0,0,1-1.12-1h0A.86.86,0,0,1,221.83,317.54Z"/><path class="cls-11" d="M222.47,322.61h40.6v2H222.72a1.16,1.16,0,0,1-1.12-1h0A.85.85,0,0,1,222.47,322.61Z"/><path class="cls-11" d="M223.11,327.67h40v2H223.36a1.17,1.17,0,0,1-1.12-1h0A.86.86,0,0,1,223.11,327.67Z"/><path class="cls-11" d="M223.75,332.74h39.32v2H224a1.17,1.17,0,0,1-1.12-1h0A.85.85,0,0,1,223.75,332.74Z"/><path class="cls-11" d="M224.39,337.81h38.68v2H224.64a1.16,1.16,0,0,1-1.12-1h0A.85.85,0,0,1,224.39,337.81Z"/><path class="cls-34" d="M311.82,365s2-3.24,4.75-3.38,2.68,3.23,1.74,3.64S311.82,365,311.82,365Z"/><path class="cls-34" d="M312.26,370.71l-.69-.15h0l-2.35-.52c.26,8.27,9.08,7.09,7.89.71l-3.87-.85-.15.42a.62.62,0,0,1-.7.42Z"/><path class="cls-32" d="M260.86,291.72h66.23a5.1,5.1,0,0,1,5.16,5.9l-10,80a6.91,6.91,0,0,1-6.64,5.9H260.86Z"/><path class="cls-33" d="M260.86,291.72h62.36a5.11,5.11,0,0,1,5.16,5.9l-10,80a6.89,6.89,0,0,1-6.63,5.9H260.86Z"/><path class="cls-32" d="M260.86,347.44H316a2,2,0,0,1,2,2.29h0a2.67,2.67,0,0,1-2.57,2.28h-54.6Z"/><path class="cls-32" d="M260.86,354.4h53A3.1,3.1,0,0,1,317,358l-2.34,18.68a4.19,4.19,0,0,1-4,3.57H260.86Z"/><path class="cls-32" d="M260.86,298.77h61.27a2,2,0,0,1,2,2.28h0a2.67,2.67,0,0,1-2.57,2.29H260.86Z"/><path class="cls-11" d="M260.86,356.48H313a.78.78,0,0,1,.78.9h0a1,1,0,0,1-1,.89H260.86v-1.79Zm0,19.12h49.71a.77.77,0,0,1,.78.9h0a1,1,0,0,1-1,.89H260.86V375.6Zm0-3.82h50.19a.77.77,0,0,1,.78.89h0a1,1,0,0,1-1,.9h-50v-1.79Zm0-3.83h50.67a.78.78,0,0,1,.78.9h0a1,1,0,0,1-1,.89H260.86V368Zm0-3.82H312a.78.78,0,0,1,.78.9h0a1,1,0,0,1-1,.89H260.86v-1.79Zm0-3.82h51.63a.77.77,0,0,1,.78.89h0a1,1,0,0,1-1,.89h-51.4Z"/><path class="cls-11" d="M309.68,324.62h2a1.15,1.15,0,0,1,1.16,1.33l-.73,5.84a1.55,1.55,0,0,1-1.49,1.32h-2a1.14,1.14,0,0,1-1.16-1.32l.73-5.84A1.55,1.55,0,0,1,309.68,324.62Z"/><path class="cls-32" d="M310.37,312.08h3.78a2.15,2.15,0,0,1,2.17,2.48L315,325.49a2.91,2.91,0,0,1-2.79,2.48h-3.78a2.15,2.15,0,0,1-2.17-2.48l1.37-10.93A2.91,2.91,0,0,1,310.37,312.08Z"/><path class="cls-32" d="M260.86,308.2h37.39a1.63,1.63,0,0,1,1.64,1.89l-3.78,30.2a2.2,2.2,0,0,1-2.12,1.88H260.86Z"/><path class="cls-11" d="M260.86,317.54h31.25a.87.87,0,0,1,.87,1h0a1.17,1.17,0,0,1-1.12,1h-31Z"/><path class="cls-11" d="M260.86,322.61h30.61a.85.85,0,0,1,.87,1h0a1.16,1.16,0,0,1-1.12,1H260.86Z"/><path class="cls-11" d="M260.86,327.67h30a.86.86,0,0,1,.87,1h0a1.17,1.17,0,0,1-1.12,1H260.86Z"/><path class="cls-11" d="M260.86,332.74h29.35a.85.85,0,0,1,.86,1h0a1.16,1.16,0,0,1-1.11,1h-29.1Z"/><path class="cls-11" d="M260.86,337.81h28.71a.85.85,0,0,1,.87,1h0a1.16,1.16,0,0,1-1.12,1H260.86Z"/><path class="cls-33" d="M292.73,312.58h-10.6a1.16,1.16,0,0,0-1.12,1h0a.86.86,0,0,0,.87,1h10.6a1.17,1.17,0,0,0,1.12-1h0A.85.85,0,0,0,292.73,312.58Z"/><path class="cls-33" d="M278.62,312.58H253.5a1.16,1.16,0,0,0-1.12,1h0a.86.86,0,0,0,.87,1h25.12a1.17,1.17,0,0,0,1.12-1h0A.85.85,0,0,0,278.62,312.58Z"/><path class="cls-3" d="M155.12,280.53a1.11,1.11,0,1,0-1.1-1.11A1.11,1.11,0,0,0,155.12,280.53Z"/><path class="cls-3" d="M159,329.11a1.37,1.37,0,1,0-1.11-1.35A1.25,1.25,0,0,0,159,329.11Z"/><path class="cls-13" d="M233.09,207.34a12.12,12.12,0,0,1,11.85,9.57,26.36,26.36,0,0,1,12.22,0,12.14,12.14,0,0,1,22.91-2.43l4.7-3.42a1,1,0,1,1,1.18,1.62l-5.18,3.78a12.49,12.49,0,0,1,.38,3,12.13,12.13,0,1,1-24.26,0c0-.18,0-.37,0-.55a24.2,24.2,0,0,0-11.7,0c0,.19,0,.37,0,.55a12.13,12.13,0,1,1-23.86-3.07l-5.11-3.73a1,1,0,0,1,1.18-1.62l4.64,3.37a12.13,12.13,0,0,1,11-7.07Zm43.08,5a10.1,10.1,0,1,0,3,7.14,10.08,10.08,0,0,0-3-7.14Zm-35.94,0a10.1,10.1,0,1,0,3,7.14A10.06,10.06,0,0,0,240.23,212.32Z"/><path class="cls-35" d="M223.47,134.75Zm-2.75-10.47a5.29,5.29,0,1,0,1.55,3.74,5.27,5.27,0,0,0-1.55-3.74ZM219.58,119a9.33,9.33,0,0,1,3.89,2.25.34.34,0,0,0,.39,0l2.45-1.42h0a.59.59,0,0,1,.45,0,.64.64,0,0,1,.37.28v0l1.73,3a.65.65,0,0,1,.06.47.62.62,0,0,1-.29.37h0l-2.44,1.4a.34.34,0,0,0-.16.36h0a9.24,9.24,0,0,1,0,4.52.34.34,0,0,0,.18.37l2.43,1.4h0a.62.62,0,0,1,.29.37.64.64,0,0,1-.06.47l-1.74,3h0a.64.64,0,0,1-.37.28.6.6,0,0,1-.47-.06h0l-2.44-1.41a.33.33,0,0,0-.39.05,9.33,9.33,0,0,1-1.82,1.37,9,9,0,0,1-2.09.89.32.32,0,0,0-.23.31v2.84a.61.61,0,0,1-.61.6h-3.48a.61.61,0,0,1-.61-.6v-2.84a.34.34,0,0,0-.25-.32,9.33,9.33,0,0,1-3.89-2.25.32.32,0,0,0-.4,0l-2.44,1.41a.6.6,0,0,1-.47.06.64.64,0,0,1-.37-.28v0l-1.73-3h0a.65.65,0,0,1-.06-.47.62.62,0,0,1,.29-.37l2.45-1.41a.32.32,0,0,0,.15-.36h0a9.24,9.24,0,0,1,0-4.52.34.34,0,0,0-.18-.37L205.3,124a.62.62,0,0,1-.29-.37.65.65,0,0,1,.06-.47h0l1.73-3h0a.64.64,0,0,1,.37-.28.65.65,0,0,1,.47.06h0l2.45,1.42a.33.33,0,0,0,.4-.06,9.32,9.32,0,0,1,1.81-1.36,9,9,0,0,1,2.09-.89.32.32,0,0,0,.23-.31v-2.83a.61.61,0,0,1,.61-.61h3.48a.61.61,0,0,1,.61.61v2.83A.33.33,0,0,0,219.58,119Z"/><path class="cls-35" d="M178.3,143.12a11.32,11.32,0,0,0-3.71-2.49,11.46,11.46,0,0,0-8.76,0,11.45,11.45,0,0,0-6.2,15,11.44,11.44,0,0,0,18.67,3.72,11.43,11.43,0,0,0,0-16.19Zm-4.12-1.51a10.4,10.4,0,0,1,5.63,13.58,10.39,10.39,0,0,1-16.95,3.37,10.28,10.28,0,0,1-3-7.35,10.38,10.38,0,0,1,10.39-10.39,10.26,10.26,0,0,1,4,.79Zm1.27-8.43a18.35,18.35,0,0,1,2.11.76,16.55,16.55,0,0,1,2,1,17.5,17.5,0,0,1,1.91,1.26,19.35,19.35,0,0,1,1.75,1.49,1.15,1.15,0,0,0,.68.33,1.23,1.23,0,0,0,.75-.15c1.68-1,3.45-1.94,5.1-2.95a.73.73,0,0,1,.24-.07.65.65,0,0,1,.28,0,.69.69,0,0,1,.26.12.67.67,0,0,1,.19.22c1.22,1.85,2.45,4.25,3.59,6.21a.72.72,0,0,1,.09.27,1,1,0,0,1,0,.29.75.75,0,0,1-.13.25.76.76,0,0,1-.21.19c-1.51,1-3.46,2-5.06,2.93a1.15,1.15,0,0,0-.51.56,2.41,2.41,0,0,0-.08.25l-.1,0,.12.47q.13.56.24,1.11c.06.36.12.74.17,1.13s.08.77.1,1.14,0,.75,0,1.15,0,.79,0,1.15-.06.76-.1,1.14-.11.77-.17,1.13-.15.74-.24,1.12a1.19,1.19,0,0,0,.07.79,1.27,1.27,0,0,0,.54.56l4.49,2.59h0l.53.31a.72.72,0,0,1,.34.44,1,1,0,0,1,0,.29.62.62,0,0,1-.09.26L191,166.75h0l-.27.46a.55.55,0,0,1-.19.21.71.71,0,0,1-.26.13.88.88,0,0,1-.28,0,.72.72,0,0,1-.27-.09c-1.6-1-3.42-2-5.07-2.93a1.17,1.17,0,0,0-.74-.15,1.2,1.2,0,0,0-.69.32h0a17.86,17.86,0,0,1-1.75,1.49,19.64,19.64,0,0,1-1.9,1.27,20.59,20.59,0,0,1-2.05,1,20.8,20.8,0,0,1-2.14.76,1.18,1.18,0,0,0-.63.43,1.14,1.14,0,0,0-.24.72v5.85a.82.82,0,0,1-.05.28.73.73,0,0,1-.16.23.63.63,0,0,1-.24.16.6.6,0,0,1-.27.06h-7.18a.77.77,0,0,1-.52-.22.7.7,0,0,1-.15-.23.64.64,0,0,1-.06-.28v-5.85a1.19,1.19,0,0,0-.26-.74,1.22,1.22,0,0,0-.66-.43,17.64,17.64,0,0,1-2.11-.75,20.19,20.19,0,0,1-2-1,18.61,18.61,0,0,1-1.91-1.27,19,19,0,0,1-1.74-1.49,1.29,1.29,0,0,0-.72-.33,1.24,1.24,0,0,0-.77.2l-5,2.89a.62.62,0,0,1-.26.09,1,1,0,0,1-.29,0,.91.91,0,0,1-.26-.13.63.63,0,0,1-.18-.21c-1.19-2.07-2.4-4.14-3.59-6.22a.62.62,0,0,1-.09-.26.57.57,0,0,1,0-.29.88.88,0,0,1,.12-.26.72.72,0,0,1,.21-.18l5.07-2.93a1.27,1.27,0,0,0,.51-.57l.06-.19.13,0-.13-.53c-.09-.38-.17-.75-.24-1.12s-.13-.73-.17-1.13-.09-.76-.11-1.14,0-.75,0-1.15,0-.78,0-1.15.06-.75.11-1.14.1-.77.17-1.13.15-.74.24-1.11a1.2,1.2,0,0,0-.62-1.35l-5-2.9a.91.91,0,0,1-.21-.18A.88.88,0,0,1,146,142a.58.58,0,0,1,0-.29.72.72,0,0,1,.09-.27c1.22-1.82,2.45-4.25,3.59-6.21a.79.79,0,0,1,.18-.22.88.88,0,0,1,.26-.12.72.72,0,0,1,.29,0,.62.62,0,0,1,.26.09l5.08,2.92a1.2,1.2,0,0,0,.76.16,1.3,1.3,0,0,0,.68-.34,19.15,19.15,0,0,1,3.64-2.74,18.48,18.48,0,0,1,2-1,18.84,18.84,0,0,1,2.15-.76,1.18,1.18,0,0,0,.63-.43,1.22,1.22,0,0,0,.24-.72v-5.86a.76.76,0,0,1,.05-.27,1,1,0,0,1,.16-.24.78.78,0,0,1,.24-.16.82.82,0,0,1,.28,0h7.18a.76.76,0,0,1,.27,0,.78.78,0,0,1,.24.16.72.72,0,0,1,.21.51V132a1.23,1.23,0,0,0,.26.74,1.19,1.19,0,0,0,.67.42ZM178,133a22.65,22.65,0,0,1,2.15,1.07,21.27,21.27,0,0,1,2,1.34,19.56,19.56,0,0,1,1.84,1.57.2.2,0,0,0,.08,0l.09,0,5.12-3a1.79,1.79,0,0,1,.64-.21,1.91,1.91,0,0,1,.67.06,1.7,1.7,0,0,1,.62.3,1.68,1.68,0,0,1,.46.53c1.24,2,2.41,4.17,3.59,6.21a1.8,1.8,0,0,1,.23.66,1.82,1.82,0,0,1-.05.7,1.77,1.77,0,0,1-.31.63,1.61,1.61,0,0,1-.52.45c-1.63,1-3.4,2-5.07,2.93a.2.2,0,0,0-.06.07.14.14,0,0,0,0,.09l.11.47h0c.05.23.09.46.14.7q.1.61.18,1.2c.05.39.08.79.11,1.2s0,.82,0,1.21,0,.8,0,1.21-.06.82-.11,1.21-.11.79-.18,1.19-.16.8-.26,1.18a.28.28,0,0,0,0,.09.16.16,0,0,0,.07.07c1.86,1,3.75,2.16,5.59,3.23l-.06.08.05.07a1.69,1.69,0,0,1,.31.63,1.78,1.78,0,0,1,.05.69,1.73,1.73,0,0,1-.23.66l-3.86,6.69-.07-.05-.12.1a1.72,1.72,0,0,1-.62.31,1.82,1.82,0,0,1-.7.05,1.68,1.68,0,0,1-.64-.22c-1.69-.89-3.43-2-5.09-2.94h-.09a.12.12,0,0,0-.08,0,21.17,21.17,0,0,1-1.84,1.57,19.42,19.42,0,0,1-2,1.33,21.75,21.75,0,0,1-2.16,1.08,20.37,20.37,0,0,1-2.27.8l-.08,0a.16.16,0,0,0,0,.09v5.85a1.72,1.72,0,0,1-.13.68,1.8,1.8,0,0,1-.39.58,1.74,1.74,0,0,1-.58.39,1.72,1.72,0,0,1-.68.14h-7.18a1.72,1.72,0,0,1-.68-.14,1.73,1.73,0,0,1-1-1,1.72,1.72,0,0,1-.14-.68v-5.85a.12.12,0,0,0,0-.09.16.16,0,0,0-.08,0h0a18.89,18.89,0,0,1-2.26-.8,18.57,18.57,0,0,1-2.14-1.07,19.55,19.55,0,0,1-2-1.33,22.77,22.77,0,0,1-1.84-1.57.09.09,0,0,0-.08,0,.1.1,0,0,0-.09,0l-5.07,2.93a2,2,0,0,1-.66.22,1.78,1.78,0,0,1-.69-.05,1.69,1.69,0,0,1-.63-.31,1.59,1.59,0,0,1-.45-.51c-1.33-2.14-2.59-4.48-3.86-6.68l.07,0,0-.17a1.78,1.78,0,0,1,.05-.69,1.67,1.67,0,0,1,.3-.63,1.91,1.91,0,0,1,.52-.46l5.07-2.93a.12.12,0,0,0,.06-.06.14.14,0,0,0,0-.09l-.13-.54h0c-.05-.21-.09-.42-.13-.64-.08-.4-.14-.8-.19-1.19s-.08-.79-.1-1.21,0-.81,0-1.21,0-.8,0-1.21.06-.81.1-1.2.11-.79.19-1.2.16-.79.25-1.17a.14.14,0,0,0-.07-.16l-5.07-2.93a1.75,1.75,0,0,1-.52-.45,1.82,1.82,0,0,1-.3-.63,1.78,1.78,0,0,1-.05-.69,1.84,1.84,0,0,1,.21-.65c1.21-2.24,2.59-4.49,3.87-6.7l.07,0,.12-.1a1.67,1.67,0,0,1,.63-.3,1.78,1.78,0,0,1,.69-.05,1.72,1.72,0,0,1,.66.22l.38.21h0l4.71,2.71a.13.13,0,0,0,.09,0l.08,0h0a19.65,19.65,0,0,1,1.83-1.57,21.82,21.82,0,0,1,2-1.33,18.07,18.07,0,0,1,2.16-1.07,17.47,17.47,0,0,1,2.27-.81s.06,0,.07-.05a.13.13,0,0,0,0-.08v-5.86a1.72,1.72,0,0,1,.14-.68,1.65,1.65,0,0,1,.39-.58,1.8,1.8,0,0,1,.58-.39,1.91,1.91,0,0,1,.68-.13h7.18a1.74,1.74,0,0,1,1.26.52,1.8,1.8,0,0,1,.52,1.26V132a.32.32,0,0,0,0,.09.12.12,0,0,0,.08,0h0A20.65,20.65,0,0,1,178,133Z"/><path class="cls-11" d="M121.89,407.13H378.42a5.87,5.87,0,0,1,5.86,5.86h0a5.87,5.87,0,0,1-5.86,5.86H121.89A5.88,5.88,0,0,1,116,413h0A5.88,5.88,0,0,1,121.89,407.13Z"/><path class="cls-36" d="M109.42,398H390.89a7.5,7.5,0,0,1,7.48,7.48h0a7.5,7.5,0,0,1-7.48,7.47H109.42a7.49,7.49,0,0,1-7.47-7.47h0A7.49,7.49,0,0,1,109.42,398Z"/><rect class="cls-37" x="280.03" y="398.04" width="15.55" height="14.94"/><rect class="cls-37" x="303.66" y="398.04" width="8.08" height="14.94"/><rect class="cls-37" x="320.22" y="398.04" width="4.04" height="14.94"/><rect class="cls-37" x="338.09" y="398.04" width="17.39" height="14.94"/><rect class="cls-37" x="368.59" y="398.04" width="8.7" height="14.94"/><path class="cls-38" d="M110,400.47H246.83a4.46,4.46,0,0,1,4.44,4.44h0a4.46,4.46,0,0,1-4.44,4.45H110a4.46,4.46,0,0,1-4.44-4.45h0A4.46,4.46,0,0,1,110,400.47Z"/></g><g id="DESIGNED_BY_FREEPIK" data-name="DESIGNED BY FREEPIK"><path class="cls-39" d="M259.4,475.84a6.56,6.56,0,0,0-1.79,3.48l-.75-.14a7.16,7.16,0,0,1,.54-1.74l-.45-.23-.19.05a.6.6,0,1,1,.52-.73l.47.24a7.66,7.66,0,0,1,1.1-1.46Zm2-1.4a7,7,0,0,1,3-.67,6.71,6.71,0,0,1,1.48.16l.16-.74a7.56,7.56,0,0,0-1.64-.18l-.51,0-.07-.63a.72.72,0,0,0-.53-1.27.72.72,0,0,0-.63.8.71.71,0,0,0,.41.56l.07.62a8,8,0,0,0-2.06.65Zm9.45-.08a.61.61,0,0,0-.53.61l-.42.36a7.82,7.82,0,0,0-1.41-1.14l-.4.65a6.7,6.7,0,0,1,2.56,2.92l.69-.31a7.2,7.2,0,0,0-.94-1.55l.4-.35a.61.61,0,0,0,.19,0,.6.6,0,0,0,.53-.67A.61.61,0,0,0,270.8,474.36Zm-7,8.86c-.38,0-.77,0-1.15,0a15.87,15.87,0,0,1-2.48-.18,9.28,9.28,0,0,1-1.27-.3,6.19,6.19,0,0,0,11.34-1.37,10,10,0,0,1-2.46,1.12A16.69,16.69,0,0,1,263.79,483.22Zm6.58-3.5a5.87,5.87,0,0,1,.05.59,11.48,11.48,0,0,1-6.67,2.15c-2.64.16-4.68-.24-5.35-.73a5.86,5.86,0,0,1-.14-1.26,6.09,6.09,0,0,1,12.11-.75Zm-6.34-.53a1.85,1.85,0,1,0-1.85,1.85A1.85,1.85,0,0,0,264,479.19Zm4.25-.41a1.36,1.36,0,1,0-1.36,1.36A1.36,1.36,0,0,0,268.28,478.78Zm9.84-1.61c0-.67.29-.94.84-1a2.82,2.82,0,0,1,1.39.24v-1.73a3.91,3.91,0,0,0-1.59-.31,2.46,2.46,0,0,0-2.57,2.78V478h-1.34v1.72h1.34v5.45h1.93v-5.45h2.23V478h-2.23Zm6.85.67a2.25,2.25,0,0,0-2,1V478h-1.87v7.17H283v-3.91a1.44,1.44,0,0,1,1.51-1.61,3.27,3.27,0,0,1,.53.05l1-1.55A1.8,1.8,0,0,0,285,477.84Zm7.74,3.77a6.32,6.32,0,0,1,0,.65h-5.09a1.75,1.75,0,0,0,1.85,1.49,2.94,2.94,0,0,0,1.81-.69l1.13,1.24a4.33,4.33,0,0,1-3.05,1.09,3.78,3.78,0,0,1-.1-7.55A3.46,3.46,0,0,1,292.71,481.61Zm-1.93-.67a1.6,1.6,0,0,0-3.18,0Zm9.59.67a6.12,6.12,0,0,1,0,.65h-5.08a1.73,1.73,0,0,0,1.84,1.49,2.94,2.94,0,0,0,1.81-.69L300,484.3a4.35,4.35,0,0,1-3.06,1.09,3.78,3.78,0,0,1-.1-7.55A3.47,3.47,0,0,1,300.37,481.61Zm-1.94-.67a1.55,1.55,0,0,0-1.56-1.44,1.57,1.57,0,0,0-1.62,1.44Zm10.28.67a3.55,3.55,0,0,1-3.47,3.78,2.65,2.65,0,0,1-2.11-.93v3.7h-1.92V478h1.89v.79a2.59,2.59,0,0,1,2.13-1A3.55,3.55,0,0,1,308.71,481.61Zm-2,0a1.85,1.85,0,1,0-1.85,2A1.84,1.84,0,0,0,306.73,481.61Zm3.85-7.17a1.22,1.22,0,0,0-1.23,1.24,1.24,1.24,0,0,0,2.47,0A1.23,1.23,0,0,0,310.58,474.44Zm-.95,10.76h1.93V478h-1.93Zm6.74-3.79,3.48-3.38h-2.37l-2.7,2.55v-6h-1.93V485.2h1.93v-2.9l2.72,2.9h2.38Zm-133.21-6h1.1v9.77h-1.1v-1.06a3,3,0,0,1-2.39,1.23c-1.84,0-3.14-1.4-3.14-3.7s1.28-3.72,3.14-3.72a3,3,0,0,1,2.39,1.24Zm0,4.64a2.65,2.65,0,0,0-2.12-1.14c-1.42,0-2.27,1.17-2.27,2.74s.85,2.72,2.27,2.72a2.63,2.63,0,0,0,2.12-1.11Zm9.41,1.67V482h-5.73a2.5,2.5,0,0,0,2.55,2.45,3.11,3.11,0,0,0,2.18-.9l.53.72a3.87,3.87,0,0,1-2.81,1.08,3.71,3.71,0,0,1-.12-7.42C191.31,477.89,192.57,479.56,192.57,481.68Zm-1.09-.53a2.29,2.29,0,0,0-2.33-2.35,2.35,2.35,0,0,0-2.31,2.35Zm3.14-1.26c0-.63.6-1.11,1.56-1.11a2.75,2.75,0,0,1,2.11.89l.52-.76a3.62,3.62,0,0,0-2.63-1c-1.68,0-2.63.94-2.63,2,0,2.63,4.38,1.57,4.38,3.29,0,.7-.59,1.21-1.67,1.21a3.21,3.21,0,0,1-2.33-1l-.57.79a3.75,3.75,0,0,0,2.85,1.11c1.83,0,2.79-.95,2.79-2.13C199,480.42,194.62,481.45,194.62,479.89Zm6.34-4.32a.74.74,0,0,0-.73.75.73.73,0,0,0,.73.73.74.74,0,0,0,.75-.73A.76.76,0,0,0,201,475.57Zm-.54,9.57h1.1v-7.08h-1.1Zm8-7.08h1.1v6.87c0,2.35-1.64,3.08-3.37,3.08a3.66,3.66,0,0,1-2.86-1.05l.56-.83a2.68,2.68,0,0,0,2.3,1,2,2,0,0,0,2.27-2.12v-1a3,3,0,0,1-2.37,1.26c-1.85,0-3.15-1.38-3.15-3.67s1.28-3.67,3.15-3.67a2.94,2.94,0,0,1,2.37,1.24Zm0,1.95a2.62,2.62,0,0,0-2.11-1.14c-1.42,0-2.27,1.13-2.27,2.69s.85,2.7,2.27,2.7a2.61,2.61,0,0,0,2.11-1.16Zm6.55-2.12a3.47,3.47,0,0,0-2.52,1.2v-1h-1.1v7.08h1.1V480a2.73,2.73,0,0,1,2.09-1.1c.95,0,1.58.39,1.58,1.64v4.63h1.1v-5A2,2,0,0,0,215,477.89Zm10.56,3.79V482h-5.73a2.5,2.5,0,0,0,2.55,2.45,3.11,3.11,0,0,0,2.18-.9l.53.72a3.87,3.87,0,0,1-2.81,1.08,3.71,3.71,0,0,1-.12-7.42C224.31,477.89,225.57,479.56,225.57,481.68Zm-1.09-.53a2.29,2.29,0,0,0-2.33-2.35,2.35,2.35,0,0,0-2.31,2.35Zm7.62-5.78h1.1v9.77h-1.1v-1.06a3,3,0,0,1-2.39,1.23c-1.84,0-3.15-1.4-3.15-3.7s1.29-3.72,3.15-3.72a3,3,0,0,1,2.39,1.24Zm0,4.64a2.68,2.68,0,0,0-2.12-1.14c-1.43,0-2.27,1.17-2.27,2.74s.84,2.72,2.27,2.72a2.66,2.66,0,0,0,2.12-1.11Zm13,1.6c0,2.3-1.31,3.7-3.15,3.7a3,3,0,0,1-2.39-1.23v1.06h-1.1v-9.77h1.1v3.76a3,3,0,0,1,2.39-1.24C243.77,477.89,245.08,479.35,245.08,481.61Zm-1.15,0c0-1.57-.84-2.74-2.28-2.74a2.65,2.65,0,0,0-2.11,1.14v3.21a2.62,2.62,0,0,0,2.11,1.11C243.09,484.33,243.93,483.18,243.93,481.61Zm5.06,2.25-2.36-5.8h-1.19l3,7.15-.47,1.07a1,1,0,0,1-1.05.75,1.73,1.73,0,0,1-.6-.12l-.18,1a3.52,3.52,0,0,0,.81.1,2.1,2.1,0,0,0,2.08-1.44l3.54-8.51h-1.2Z"/></g></svg>