<svg id="Layer_1" data-name="Layer 1" xmlns="http://www.w3.org/2000/svg" viewBox="0 0 381.02 534.68"><defs><style>.cls-1,.cls-8{fill:#3a322b;}.cls-12,.cls-2{fill:#fff;}.cls-3{font-size:73.36px;fill:#010101;font-family:GoudyTrajan-Regular, GoudyTrajan Regular;}.cls-4{letter-spacing:-0.08em;}.cls-5{letter-spacing:0.01em;}.cls-6{letter-spacing:-0.08em;}.cls-7{letter-spacing:0em;}.cls-8{font-size:39.77px;font-family:BebasNeueBold;letter-spacing:0.1em;}.cls-9{letter-spacing:0.06em;}.cls-10{letter-spacing:0.1em;}.cls-11{fill:none;stroke:#c53a31;stroke-linecap:square;stroke-width:3px;}.cls-11,.cls-12{stroke-miterlimit:10;}.cls-12{stroke:#3a322b;stroke-width:2px;}.cls-13{fill:#86162c;}.cls-14{fill:#c53a31;}</style></defs><title>logo</title><path class="cls-1" d="M485.36,511.26a11,11,0,0,0-8-3.25l-11,11a11.11,11.11,0,1,0,19-7.75Z" transform="translate(-107.59 -153.32)"/><polygon class="cls-1" points="369.82 354.69 113.04 101.36 102.04 112.37 358.81 365.69 358.82 365.69 369.81 354.69 369.82 354.69"/><path class="cls-1" d="M221,229.46,112.84,154.35s-2.87-2.06-4.58-.36.36,4.59.36,4.59l75.11,108.16,13.54-5.49L218,284.46l20.72-20.72L215.52,243Z" transform="translate(-107.59 -153.32)"/><path class="cls-2" d="M184.83,263.07l13.27-5.38,20,22.41,8.12-8.12L111.17,156.9a1.12,1.12,0,0,1-.23-.23Z" transform="translate(-107.59 -153.32)"/><path class="cls-2" d="M217.34,230.56,212,243.83l22.41,20L226.25,272,111.17,156.9a1.12,1.12,0,0,0-.23-.23Z" transform="translate(-107.59 -153.32)"/><path class="cls-1" d="M111.17,156.9h0l-.12-.1L198.1,257.69l20,22.41,8.12-8.12Z" transform="translate(-107.59 -153.32)"/><polygon class="cls-1" points="104.37 90.51 81.86 71.5 106.4 85.49 104.37 90.51"/><path class="cls-1" d="M110.84,511.26a11,11,0,0,1,8-3.25l11,11a11.11,11.11,0,1,1-19-7.75Z" transform="translate(-107.59 -153.32)"/><polygon class="cls-1" points="11.21 354.69 267.98 101.36 278.99 112.37 22.22 365.69 22.21 365.69 11.21 354.69 11.21 354.69"/><path class="cls-1" d="M375.19,229.46l108.17-75.11s2.87-2.06,4.58-.36-.36,4.59-.36,4.59L412.47,266.74l-13.54-5.49L378.2,284.46l-20.73-20.72L380.68,243Z" transform="translate(-107.59 -153.32)"/><path class="cls-2" d="M411.37,263.07l-13.27-5.38-20,22.41L370,272,485,156.9a1.12,1.12,0,0,0,.23-.23Z" transform="translate(-107.59 -153.32)"/><path class="cls-2" d="M378.86,230.56l5.38,13.27-22.41,20L370,272,485,156.9a1.12,1.12,0,0,1,.23-.23Z" transform="translate(-107.59 -153.32)"/><path class="cls-1" d="M485,156.9h0l.12-.1-87,100.89-20,22.41L370,272Z" transform="translate(-107.59 -153.32)"/><polygon class="cls-1" points="276.66 90.51 299.16 71.5 274.62 85.49 276.66 90.51"/><text class="cls-3" transform="translate(49.05 456.12)">S<tspan class="cls-4" x="36.17" y="0">P</tspan><tspan x="69.03" y="0">A</tspan><tspan class="cls-5" x="113.93" y="0">R</tspan><tspan class="cls-6" x="154.06" y="0">T</tspan><tspan class="cls-7" x="185.02" y="0">AN</tspan></text><text class="cls-8" transform="translate(70.94 524.74)">SO<tspan class="cls-9" x="54.96" y="0">L</tspan><tspan class="cls-10" x="76.27" y="0">UTIONS</tspan></text><line class="cls-11" x1="137.09" y1="477.71" x2="233.09" y2="477.71"/><circle class="cls-12" cx="295.74" cy="402.34" r="132.46" transform="translate(-305.47 173.64) rotate(-45)"/><circle class="cls-1" cx="188.15" cy="249.02" r="122.27"/><path class="cls-2" d="M236.1,361.41l-5,65.16,40.26,82.36,2.51-82.36.21-8.08-23.29-13-7.66-25.11,42.68,22.79-.18,15.33-.1,8.08-.17,14.49,10.36,7.66V315C264.76,315,238.11,335.06,236.1,361.41Z" transform="translate(-107.59 -153.32)"/><path class="cls-1" d="M234.23,426l3.93-51.45,10.09,33L271,420.25l-.16,6.24-2.14,70Zm54.22,13.56.46-38.19-50.73-27.08,1-12.62c1.8-23.61,25-42.28,53.53-43.54V442.66Z" transform="translate(-107.59 -153.32)"/><path class="cls-2" d="M355.37,361.41c-2-26.35-28.66-46.43-59.63-46.43V448.72l10.35-7.66-.17-14.49-.1-8.08-.18-15.33,42.68-22.79-7.66,25.11-23.29,13,.21,8.08,2.51,82.36,40.26-82.36Z" transform="translate(-107.59 -153.32)"/><polygon class="cls-13" points="185.09 190.05 180.27 190.09 158.49 94.15 185.09 85.5 185.09 190.05"/><polygon class="cls-14" points="185.09 190.05 189.91 190.09 211.69 94.15 185.09 85.5 185.09 190.05"/></svg>